<svg xmlns="http://www.w3.org/2000/svg" xmlns:xlink="http://www.w3.org/1999/xlink" width="1024" zoomAndPan="magnify" viewBox="0 0 768 767.999994" height="1024" preserveAspectRatio="xMidYMid meet" version="1.0"><defs><g/><clipPath id="cb275f906a"><path d="M 18.566406 1.527344 L 768 1.527344 L 768 767 L 18.566406 767 Z M 18.566406 1.527344 " clip-rule="nonzero"/></clipPath><clipPath id="3959cbb3be"><path d="M 393.285156 1.527344 C 186.335938 1.527344 18.566406 172.765625 18.566406 384 C 18.566406 595.234375 186.335938 766.472656 393.285156 766.472656 C 600.234375 766.472656 768 595.234375 768 384 C 768 172.765625 600.234375 1.527344 393.285156 1.527344 Z M 393.285156 1.527344 " clip-rule="nonzero"/></clipPath><clipPath id="54efe587ae"><path d="M 0.566406 0.527344 L 750 0.527344 L 750 765 L 0.566406 765 Z M 0.566406 0.527344 " clip-rule="nonzero"/></clipPath><clipPath id="5bbb32a789"><path d="M 375.285156 0.527344 C 168.335938 0.527344 0.566406 171.765625 0.566406 383 C 0.566406 594.234375 168.335938 765.472656 375.285156 765.472656 C 582.234375 765.472656 750 594.234375 750 383 C 750 171.765625 582.234375 0.527344 375.285156 0.527344 Z M 375.285156 0.527344 " clip-rule="nonzero"/></clipPath><clipPath id="bfc4ac45ea"><rect x="0" width="750" y="0" height="766"/></clipPath></defs><rect x="-76.8" width="921.6" fill="#ffffff" y="-76.799999" height="921.599993" fill-opacity="1"/><rect x="-76.8" width="921.6" fill="#ffffff" y="-76.799999" height="921.599993" fill-opacity="1"/><g clip-path="url(#cb275f906a)"><g clip-path="url(#3959cbb3be)"><g transform="matrix(1, 0, 0, 1, 18, 1)"><g clip-path="url(#bfc4ac45ea)"><g clip-path="url(#54efe587ae)"><g clip-path="url(#5bbb32a789)"><path fill="#3067cf" d="M 0.566406 0.527344 L 750 0.527344 L 750 764.597656 L 0.566406 764.597656 Z M 0.566406 0.527344 " fill-opacity="1" fill-rule="nonzero"/></g></g></g></g></g></g><g fill="#ffffff" fill-opacity="1"><g transform="translate(201.322947, 636.629549)"><g><path d="M 124.078125 0 L 67.21875 0 L 67.21875 -488.984375 L 339.8125 -488.984375 L 339.8125 -438.46875 L 124.078125 -438.46875 L 124.078125 -259.53125 L 326.765625 -259.53125 L 326.765625 -209.03125 L 124.078125 -209.03125 Z M 124.078125 0 "/></g></g></g></svg>